<mxfile host="app.diagrams.net" modified="2024-03-25T22:38:52.519Z" agent="Mozilla/5.0 (Windows NT 10.0; Win64; x64) AppleWebKit/537.36 (KHTML, like Gecko) Chrome/121.0.0.0 Safari/537.36 OPR/107.0.0.0" etag="b3FFd5QXK4u09nL55S_P" version="24.1.0" type="device">
  <diagram name="Страница — 1" id="g8NyaodEBDYiZqUqbPeW">
    <mxGraphModel dx="2641" dy="886" grid="1" gridSize="10" guides="1" tooltips="1" connect="1" arrows="1" fold="1" page="1" pageScale="1" pageWidth="827" pageHeight="1169" math="0" shadow="0">
      <root>
        <mxCell id="0" />
        <mxCell id="1" parent="0" />
        <mxCell id="MMHVwSISlRc5Ym7UIzbm-1" value="" style="rounded=0;whiteSpace=wrap;html=1;" parent="1" vertex="1">
          <mxGeometry x="-120" y="80" width="1320" height="800" as="geometry" />
        </mxCell>
        <mxCell id="MMHVwSISlRc5Ym7UIzbm-3" value="" style="rounded=0;whiteSpace=wrap;html=1;" parent="1" vertex="1">
          <mxGeometry x="180" y="200" width="550" height="590" as="geometry" />
        </mxCell>
        <mxCell id="MMHVwSISlRc5Ym7UIzbm-4" value="&lt;font style=&quot;font-size: 24px;&quot;&gt;Играть&lt;/font&gt;" style="rounded=0;whiteSpace=wrap;html=1;" parent="1" vertex="1">
          <mxGeometry x="455" y="110" width="170" height="60" as="geometry" />
        </mxCell>
        <mxCell id="MMHVwSISlRc5Ym7UIzbm-5" value="&lt;span style=&quot;font-size: 24px;&quot;&gt;Выход&lt;/span&gt;" style="rounded=0;whiteSpace=wrap;html=1;" parent="1" vertex="1">
          <mxGeometry x="640" y="110" width="170" height="60" as="geometry" />
        </mxCell>
        <mxCell id="MMHVwSISlRc5Ym7UIzbm-6" value="&lt;font style=&quot;&quot;&gt;&lt;font style=&quot;font-size: 20px;&quot;&gt;Музыка вкл/выкл&lt;/font&gt;&lt;br&gt;&lt;/font&gt;" style="rounded=0;whiteSpace=wrap;html=1;" parent="1" vertex="1">
          <mxGeometry x="270" y="110" width="170" height="60" as="geometry" />
        </mxCell>
        <mxCell id="MMHVwSISlRc5Ym7UIzbm-8" value="" style="verticalLabelPosition=bottom;verticalAlign=top;html=1;shape=mxgraph.basic.patternFillRect;fillStyle=diag;step=5;fillStrokeWidth=0.2;fillStrokeColor=#dddddd;" parent="1" vertex="1">
          <mxGeometry x="20" y="200" width="1030" height="610" as="geometry" />
        </mxCell>
        <mxCell id="MMHVwSISlRc5Ym7UIzbm-9" value="&lt;font style=&quot;font-size: 24px;&quot;&gt;(Игра на фоне)&lt;/font&gt;" style="text;html=1;strokeColor=none;fillColor=none;align=center;verticalAlign=middle;whiteSpace=wrap;rounded=0;" parent="1" vertex="1">
          <mxGeometry x="435" y="620" width="210" height="60" as="geometry" />
        </mxCell>
        <mxCell id="MMHVwSISlRc5Ym7UIzbm-10" value="&lt;font style=&quot;font-size: 24px;&quot;&gt;Текст&lt;br&gt;Название игры&lt;br&gt;&quot;Don&#39;t Crush The Car&quot;&lt;/font&gt;" style="rounded=0;whiteSpace=wrap;html=1;" parent="1" vertex="1">
          <mxGeometry x="380" y="320" width="320" height="100" as="geometry" />
        </mxCell>
        <mxCell id="MMHVwSISlRc5Ym7UIzbm-11" value="&lt;font style=&quot;font-size: 14px;&quot;&gt;Первоначальный интерфейс&lt;br&gt;(периодически будет дорабатываться)&lt;/font&gt;" style="text;html=1;strokeColor=none;fillColor=none;align=center;verticalAlign=middle;whiteSpace=wrap;rounded=0;" parent="1" vertex="1">
          <mxGeometry x="390" y="20" width="300" height="50" as="geometry" />
        </mxCell>
      </root>
    </mxGraphModel>
  </diagram>
</mxfile>
